<?xml version="1.0" encoding="UTF-8"?>
<svg version="1.1" xmlns="http://www.w3.org/2000/svg" width="512" height="512">
<path d="M0 0 C134.64 0 269.28 0 408 0 C408 168.96 408 337.92 408 512 C273.36 512 138.72 512 0 512 C0 332.1807554 0 332.1807554 18.859375 311.421875 C21.12642499 308.85696443 23.28630745 306.2251649 25.4375 303.5625 C29.29941675 298.78715598 33.37674224 294.26332315 37.53515625 289.74609375 C39.92707297 287.08124834 42.19254884 284.35168175 44.4375 281.5625 C48.49221121 276.53178751 52.79569089 271.81417753 57.2265625 267.1171875 C57.663217 266.61935729 58.0998715 266.12152708 58.54975796 265.60861111 C60 264 60 264 61.77092838 262.36625004 C68.86311572 254.9771156 67.97813873 246.38303181 67.88647461 236.81225586 C67.89437084 234.96857202 67.90533697 233.12489917 67.91912842 231.28125 C67.94777547 226.29609039 67.93365898 221.31187324 67.91168666 216.32671428 C67.89602317 211.10962847 67.91993322 205.89272518 67.93959045 200.67567444 C67.97079574 190.80543531 67.96656882 180.93554423 67.94951588 171.06528336 C67.93182757 159.82458865 67.95378529 148.5840798 67.97902286 137.34341228 C68.03003422 114.22881057 68.02618867 91.11465206 68 68 C45.56 68 23.12 68 0 68 C0 45.56 0 23.12 0 0 Z M16 16 C16 27.88 16 39.76 16 52 C96.85 52 177.7 52 261 52 C261 40.12 261 28.24 261 16 C180.15 16 99.3 16 16 16 Z M278 16 C278 27.88 278 39.76 278 52 C289.55 52 301.1 52 313 52 C313 40.12 313 28.24 313 16 C301.45 16 289.9 16 278 16 Z M330 16 C330.01683838 23.39446533 330.03367676 30.78893066 330.05102539 38.4074707 C330.09860739 62.09008034 330.10188085 85.7724845 330.07740569 109.45511987 C330.07364195 113.13617663 330.07026938 116.81723366 330.06713867 120.49829102 C330.06650885 121.23109683 330.06587903 121.96390265 330.06523012 122.71891471 C330.05597549 134.57119856 330.07838136 146.42322055 330.11256976 158.27544961 C330.14696484 170.4447173 330.14714606 182.61364192 330.11582941 194.78291959 C330.09758845 202.28710889 330.10576189 209.79030156 330.14815276 217.29439732 C330.17784059 223.05693967 330.15983323 228.81858705 330.12437057 234.58106041 C330.11724414 236.9388414 330.12539841 239.29672738 330.15022469 241.65438843 C330.34666834 261.67772833 330.34666834 261.67772833 324.61595154 268.78239441 C323.12027952 270.23390292 321.5861523 271.64795244 320 273 C318.99512482 274.09026835 318.00296182 275.19257351 317.03125 276.3125 C316.1959375 277.199375 315.360625 278.08625 314.5 279 C310.20652848 283.60621608 306.19561053 288.37818085 302.24609375 293.28515625 C299.11832821 297.06567286 295.78726117 300.64480875 292.46484375 304.25390625 C290.07292703 306.91875166 287.80745116 309.64831825 285.5625 312.4375 C281.53586475 317.43166599 277.26856192 322.11995791 272.87109375 326.78515625 C272.42946144 327.28441431 271.98782913 327.78367237 271.53281403 328.29805946 C270.39829747 329.55775547 269.21245574 330.77163875 268.00154877 331.95808983 C261.16886983 339.28172792 260.89470389 345.94394383 261.09179688 355.45556641 C261.09405744 356.99396648 261.09277904 358.53237517 261.08825684 360.07077026 C261.08597446 364.21957547 261.13279009 368.3665059 261.1888485 372.5148778 C261.23908031 376.86027382 261.24357562 381.20571951 261.25305176 385.55136108 C261.2778524 393.76794411 261.34341287 401.98366899 261.42384768 410.19987524 C261.53024782 421.31111979 261.57322185 432.42260135 261.61986542 443.53422737 C261.6949428 461.02346022 261.8543585 478.51088272 262 496 C304.9 496 347.8 496 392 496 C392 337.6 392 179.2 392 16 C371.54 16 351.08 16 330 16 Z M84 68 C84 128.06 84 188.12 84 250 C87.96 250 91.92 250 96 250 C96 255.61 96 261.22 96 267 C93.504375 266.855625 91.00875 266.71125 88.4375 266.5625 C82.8791235 266.44270304 82.8791235 266.44270304 77.6953125 268.171875 C75.87962328 269.99625173 74.46522208 271.88315906 73 274 C71.5713801 275.75725679 70.1331449 277.50672232 68.6875 279.25 C67.92824219 280.19359375 67.16898438 281.1371875 66.38671875 282.109375 C64.00629518 284.99237572 61.53320218 287.75078833 59 290.5 C55.72581577 294.05670244 52.59357567 297.67161811 49.5625 301.4375 C46.30448737 305.47974222 42.91088362 309.32880593 39.375 313.125 C31.5398842 320.31624353 31.5398842 320.31624353 27 329 C55.8506088 329.3507559 84.70089705 329.61508663 113.55321026 329.77718258 C116.22273077 329.79257965 118.89224993 329.80809952 121.56176758 329.82397461 C122.55701317 329.82987659 122.55701317 329.82987659 123.57236473 329.83589781 C133.62995718 329.897006 143.68647959 330.00224996 153.7434082 330.1315918 C165.42311483 330.28133135 177.10186071 330.37792654 188.78250057 330.41132742 C194.96515015 330.43084661 201.14505184 330.47654699 207.32681847 330.58595085 C213.15292191 330.6882192 218.97516243 330.71908955 224.80207825 330.69661522 C226.93347027 330.70072255 229.0649991 330.7303092 231.19561195 330.78808212 C243.58423556 331.32449898 243.58423556 331.32449898 254.11236 325.69569588 C257.01050344 322.58502416 259.48897766 319.26328358 261.83598578 315.72325242 C263.28867517 313.57263393 264.94251338 311.66025072 266.69140625 309.74609375 C272.40403824 303.16360969 278.09164218 296.56115769 283.7487793 289.9309082 C287.37007384 285.70011877 291.08030347 281.56045705 294.8671875 277.4765625 C297.75211026 274.12667051 300.34744651 270.53673799 303 267 C247.89 267 192.78 267 136 267 C136 261.39 136 255.78 136 250 C194.41 250 252.82 250 313 250 C313 189.94 313 129.88 313 68 C237.43 68 161.86 68 84 68 Z M16 345 C16 394.83 16 444.66 16 496 C91.57 496 167.14 496 245 496 C245 446.17 245 396.34 245 345 C169.43 345 93.86 345 16 345 Z " fill="#000000" transform="translate(52,0)"/>
<path d="M0 0 C66 0 132 0 200 0 C200.0309375 37.5890625 200.0309375 37.5890625 200.0625 75.9375 C200.071604 83.86386475 200.08070801 91.79022949 200.09008789 99.95678711 C200.09460449 109.60070801 200.09460449 109.60070801 200.09544373 114.10865784 C200.09637921 117.27195429 200.10014186 120.43523413 200.10557556 123.598526 C200.11240244 127.62583134 200.11449716 131.65311231 200.11307228 135.6804229 C200.1133705 137.16323486 200.11537238 138.64604762 200.11921513 140.12885463 C200.12414378 142.12230958 200.12240376 144.11577779 200.12025452 146.10923767 C200.12163721 147.78920538 200.12163721 147.78920538 200.12304783 149.50311184 C200 152 200 152 199 153 C197.17772313 153.09643778 195.3516664 153.12187371 193.52684021 153.12025452 C191.74518463 153.12231651 191.74518463 153.12231651 189.92753601 153.12442017 C187.95524773 153.11902725 187.95524773 153.11902725 185.94311523 153.11352539 C184.55382286 153.11324352 183.16453033 153.11340125 181.77523804 153.1139679 C177.99234711 153.11425588 174.20948762 153.10835901 170.42660403 153.10139394 C166.47744323 153.09516055 162.52828178 153.09455661 158.57911682 153.09336853 C151.09574925 153.09025517 143.61239621 153.08204172 136.12903506 153.07201904 C127.61164267 153.06085805 119.0942496 153.05534749 110.57685173 153.05032361 C93.05122583 153.03985911 75.525615 153.02205914 58 153 C58 147.39 58 141.78 58 136 C99.25 136 140.5 136 183 136 C183 96.73 183 57.46 183 17 C128.22 17 73.44 17 17 17 C17 44.72 17 72.44 17 101 C11.39 101 5.78 101 0 101 C0 67.67 0 34.34 0 0 Z " fill="#000000" transform="translate(151,83)"/>
<path d="M0 0 C6.92334161 7.34162683 8.66991444 13.88550105 8.4140625 23.921875 C7.58948034 31.55384102 4.52235807 37.84001087 -0.9375 43.17578125 C-4.45107658 45.71106788 -7.81825539 47.80269971 -11.9375 49.17578125 C-12.2675 64.02578125 -12.5975 78.87578125 -12.9375 94.17578125 C-18.2175 94.17578125 -23.4975 94.17578125 -28.9375 94.17578125 C-29.2675 79.32578125 -29.5975 64.47578125 -29.9375 49.17578125 C-32.5775 47.85578125 -35.2175 46.53578125 -37.9375 45.17578125 C-43.55978536 41.69531888 -47.47854102 35.48276793 -49.58984375 29.25 C-51.25314185 19.32627763 -50.11420332 11.28019379 -44.46484375 3.0234375 C-39.44213621 -3.35290753 -33.30827396 -6.61011487 -25.5625 -8.76171875 C-15.45996441 -8.9359004 -7.40528369 -6.97231347 0 0 Z M-31.75 14.11328125 C-33.20682575 16.64355755 -33.80088918 18.23864869 -33.9375 21.17578125 C-32.1747279 26.46409754 -30.05639205 30.61633522 -24.9375 33.17578125 C-19.64300628 33.52296117 -16.19086556 33.69999843 -11.9375 30.17578125 C-8.80880145 26.50765191 -8.35971812 23.07173755 -8.515625 18.39453125 C-9.36832471 13.90996239 -12.21269173 11.39983873 -15.875 8.80078125 C-22.66851436 6.74214054 -27.04448688 9.08324999 -31.75 14.11328125 Z " fill="#000000" transform="translate(188.9375,203.82421875)"/>
<path d="M0 0 C5.60678093 5.07280179 8.30438351 10.59172541 8.9375 18.0625 C8.83003879 23.83316689 6.84520754 28.90751816 2.9765625 33.20703125 C-2.77147279 38.36520265 -7.91611043 39.85902369 -15.59375 39.68359375 C-21.61353379 39.0156683 -25.69619097 36.40546475 -29.75 32 C-33.6298584 27.02365988 -34.91911376 22.06970902 -34.75 15.8125 C-33.81754855 9.7515656 -30.926719 4.1681983 -26.0625 0.375 C-17.51492674 -4.79030771 -8.93111796 -4.30016791 0 0 Z M-16.25 14.5 C-17.63566212 16.3890578 -17.63566212 16.3890578 -17.125 19 C-16.59754355 21.3062407 -16.59754355 21.3062407 -15.375 22.375 C-12.91690002 22.6250773 -12.91690002 22.6250773 -10.375 22.375 C-9.715 21.715 -9.055 21.055 -8.375 20.375 C-8.69698966 17.27573181 -8.69698966 17.27573181 -9.375 14.375 C-12.92466644 13.24059731 -12.92466644 13.24059731 -16.25 14.5 Z " fill="#000000" transform="translate(239.375,279.625)"/>
<path d="M0 0 C5.60678093 5.07280179 8.30438351 10.59172541 8.9375 18.0625 C8.83003879 23.83316689 6.84520754 28.90751816 2.9765625 33.20703125 C-2.77147279 38.36520265 -7.91611043 39.85902369 -15.59375 39.68359375 C-21.61353379 39.0156683 -25.69619097 36.40546475 -29.75 32 C-33.94389904 26.63226508 -35.18789698 21.14490765 -34.375 14.375 C-33.03998829 8.73248958 -30.84117222 5.18758604 -26.375 1.375 C-25.776875 0.818125 -25.17875 0.26125 -24.5625 -0.3125 C-16.59137928 -5.09517243 -8.09645413 -3.89829273 0 0 Z M-16.25 14.5 C-17.63566212 16.3890578 -17.63566212 16.3890578 -17.125 19 C-16.59754355 21.3062407 -16.59754355 21.3062407 -15.375 22.375 C-12.91690002 22.6250773 -12.91690002 22.6250773 -10.375 22.375 C-9.715 21.715 -9.055 21.055 -8.375 20.375 C-8.69698966 17.27573181 -8.69698966 17.27573181 -9.375 14.375 C-12.92466644 13.24059731 -12.92466644 13.24059731 -16.25 14.5 Z " fill="#000000" transform="translate(286.375,279.625)"/>
<path d="M0 0 C5.28 0 10.56 0 16 0 C16 14.19 16 28.38 16 43 C10.72 43 5.44 43 0 43 C0 28.81 0 14.62 0 0 Z " fill="#000000" transform="translate(256,368)"/>
</svg>
